<?xml version="1.0" encoding="UTF-8"?>
<!-- Created with EazyDraw for Mac ( http://www.eazydraw.com/ ) -->

<svg
    version="1.1"
    xmlns:dc="http://purl.org/dc/elements/1.1/"
    xmlns:cc="http://creativecommons.org/ns#"
    xmlns:rdf="http://www.w3.org/1999/02/22-rdf-syntax-ns#"
    xmlns:svg="http://www.w3.org/2000/svg"
    xmlns:xlink="http://www.w3.org/1999/xlink"
    xmlns="http://www.w3.org/2000/svg"
    width="1042.98228346"
    height="412.273622047"
    viewBox="0, 0, 834.385826772, 329.818897638"
    preserveAspectRatio="none"
    id="svg2">
   <defs
       id="defs_362363DB"/>
   <metadata
       id="metadata7">
      <rdf:RDF>
         <cc:Work
             rdf:about="">
            <dc:format>image/svg+xml</dc:format>
            <dc:type rdf:resource="http://purl.org/dc/dcmitype/StillImage"/>
            <dc:title></dc:title>
         </cc:Work>
      </rdf:RDF>
   </metadata>
   <g
       id="layer_cuts"
       style="fill:#000000;fill-opacity:1;stroke:#000000;stroke-opacity:1;fill-rule:nonzero;stroke-linecap:square;stroke-linejoin:miter;stroke-width:1;stroke-miterlimit:10">
      <path
          style="stroke:none"
          id="6B8616C0"
          d="M79.8700787393,87.239724838 C79.8700787393,89.745725075 77.8390785463,91.775725268 75.3340783093,91.775725268 C72.8300780723,91.775725268 70.7990778803,89.745725075 70.7990778803,87.239724838 C70.7990778803,84.735724601 72.8300780723,82.704724409 75.3340783093,82.704724409
C77.8390785463,82.704724409 79.8700787393,84.735724601 79.8700787393,87.239724838"/>
      <path
          style="stroke:none"
          id="8B8616C0"
          d="M241.444881889,51.524040443 C241.444881889,57.786041036 236.369881409,62.862041516 230.106880816,62.862041516 C223.844880224,62.862041516 218.767879743,57.786041036 218.767879743,51.524040443 C218.767879743,45.261039851 223.844880224,40.18503937 230.106880816,40.18503937
C236.369881409,40.18503937 241.444881889,45.261039851 241.444881889,51.524040443"/>
      <path
          style="stroke:none"
          id="9B8616C0"
          d="M179.082677165,51.524040443 C179.082677165,57.786041035 174.006676685,62.862041515 167.743676092,62.862041515 C161.4816755,62.862041515 156.40467502,57.786041035 156.40467502,51.524040443 C156.40467502,45.26103985 161.4816755,40.18503937 167.743676092,40.18503937
C174.006676685,40.18503937 179.082677165,45.26103985 179.082677165,51.524040443"/>
      <path
          style="stroke:none"
          id="AB8616C0"
          d="M54.3582677163,51.524040443 C54.3582677163,57.786041035 49.2812672363,62.862041515 43.0192666433,62.862041515 C36.7572660513,62.862041515 31.6802655703,57.786041035 31.6802655703,51.524040443 C31.6802655703,45.26103985 36.7572660513,40.18503937 43.0192666433,40.18503937
C49.2812672363,40.18503937 54.3582677163,45.26103985 54.3582677163,51.524040443"/>
      <path
          style="stroke:none"
          id="BB8616C0"
          d="M241.444881889,125.223827844 C241.444881889,131.487828437 236.369881409,136.563828917 230.106880816,136.563828917 C223.844880224,136.563828917 218.767879743,131.487828437 218.767879743,125.223827844 C218.767879743,118.961827252 223.844880224,113.885826772 230.106880816,113.885826772
C236.369881409,113.885826772 241.444881889,118.961827252 241.444881889,125.223827844"/>
      <path
          style="stroke:none"
          id="CB8616C0"
          d="M179.082677165,125.224827845 C179.082677165,131.487828438 174.006676685,136.563828918 167.743676092,136.563828918 C161.4816755,136.563828918 156.40467502,131.487828438 156.40467502,125.224827845 C156.40467502,118.962827253 161.4816755,113.885826772 167.743676092,113.885826772
C174.006676685,113.885826772 179.082677165,118.962827253 179.082677165,125.224827845"/>
      <path
          style="stroke:none"
          id="DB8616C0"
          d="M241.444881889,198.925615246 C241.444881889,205.188615838 236.369881409,210.263616319 230.106880816,210.263616319 C223.844880224,210.263616319 218.767879743,205.188615838 218.767879743,198.925615246 C218.767879743,192.663614653 223.844880224,187.586614173 230.106880816,187.586614173
C236.369881409,187.586614173 241.444881889,192.663614653 241.444881889,198.925615246"/>
      <path
          style="stroke:none"
          id="EB8616C0"
          d="M179.082677165,198.925615246 C179.082677165,205.188615838 174.006676685,210.263616319 167.743676092,210.263616319 C161.4816755,210.263616319 156.40467502,205.188615838 156.40467502,198.925615246 C156.40467502,192.663614653 161.4816755,187.586614173 167.743676092,187.586614173
C174.006676685,187.586614173 179.082677165,192.663614653 179.082677165,198.925615246"/>
      <path
          style="stroke:none"
          id="FB8616C0"
          d="M116.72047244,198.925615246 C116.72047244,205.188615838 111.643471959,210.263616319 105.381471367,210.263616319 C99.1194707743,210.263616319 94.0424702943,205.188615838 94.0424702943,198.925615246 C94.0424702943,192.663614653 99.1194707743,187.586614173 105.381471367,187.586614173
C111.643471959,187.586614173 116.72047244,192.663614653 116.72047244,198.925615246"/>
      <path
          style="stroke:none"
          id="0C8616C0"
          d="M54.3582677163,198.925615246 C54.3582677163,205.188615838 49.2812672363,210.263616319 43.0192666433,210.263616319 C36.7572660513,210.263616319 31.6802655703,205.188615838 31.6802655703,198.925615246 C31.6802655703,192.663614653 36.7572660513,187.586614173 43.0192666433,187.586614173
C49.2812672363,187.586614173 54.3582677163,192.663614653 54.3582677163,198.925615246"/>
      <path
          style="stroke:none"
          id="1C8616C0"
          d="M241.444881889,272.625402647 C241.444881889,278.88840324 236.369881409,283.96440372 230.106880816,283.96440372 C223.844880224,283.96440372 218.767879743,278.88840324 218.767879743,272.625402647 C218.767879743,266.363402055 223.844880224,261.287401575 230.106880816,261.287401575
C236.369881409,261.287401575 241.444881889,266.363402055 241.444881889,272.625402647"/>
      <path
          style="stroke:none"
          id="2C8616C0"
          d="M179.082677165,272.625402647 C179.082677165,278.88840324 174.006676685,283.96440372 167.743676092,283.96440372 C161.4816755,283.96440372 156.40467502,278.88840324 156.40467502,272.625402647 C156.40467502,266.363402055 161.4816755,261.287401575 167.743676092,261.287401575
C174.006676685,261.287401575 179.082677165,266.363402055 179.082677165,272.625402647"/>
      <path
          style="stroke:none"
          id="3C8616C0"
          d="M116.72047244,272.625402647 C116.72047244,278.88840324 111.643471959,283.96440372 105.381471367,283.96440372 C99.1194707743,283.96440372 94.0424702943,278.88840324 94.0424702943,272.625402647 C94.0424702943,266.363402055 99.1194707743,261.287401575 105.381471367,261.287401575
C111.643471959,261.287401575 116.72047244,266.363402055 116.72047244,272.625402647"/>
      <path
          style="stroke:none"
          id="4C8616C0"
          d="M54.3582677163,272.625402647 C54.3582677163,278.88840324 49.2812672363,283.96440372 43.0192666433,283.96440372 C36.7572660513,283.96440372 31.6802655703,278.88840324 31.6802655703,272.625402647 C31.6802655703,266.363402055 36.7572660513,261.287401575 43.0192666433,261.287401575
C49.2812672363,261.287401575 54.3582677163,266.363402055 54.3582677163,272.625402647"/>
      <path
          style="stroke:none"
          id="5C8616C0"
          d="M298.137795275,85.538788475 C298.137795275,91.800789067 293.061794795,96.877789548 286.798794202,96.877789548 C280.53779361,96.877789548 275.460793129,91.800789067 275.460793129,85.538788475 C275.460793129,79.276787882 280.53779361,74.200787402 286.798794202,74.200787402
C293.061794795,74.200787402 298.137795275,79.276787882 298.137795275,85.538788475"/>
      <path
          style="stroke:none"
          id="6C8616C0"
          d="M139.397637795,50.389394935 C139.397637795,57.590395616 133.559637243,63.428396168 126.358636561,63.428396168 C119.15663588,63.428396168 113.318635327,57.590395616 113.318635327,50.389394935 C113.318635327,43.188394253 119.15663588,37.350393701 126.358636561,37.350393701
C133.559637243,37.350393701 139.397637795,43.188394253 139.397637795,50.389394935"/>
      <path
          style="stroke:none"
          id="7C8616C0"
          d="M99.7125984253,50.389394935 C99.7125984253,57.590395616 93.8745978733,63.428396168 86.6725971913,63.428396168 C79.4715965103,63.428396168 73.6335959573,57.590395616 73.6335959573,50.389394935 C73.6335959573,43.188394253 79.4715965103,37.350393701 86.6725971913,37.350393701
C93.8745978733,37.350393701 99.7125984253,43.188394253 99.7125984253,50.389394935"/>
      <path
          style="stroke:none"
          id="8C8616C0"
          d="M139.397637795,124.090182335 C139.397637795,131.292183017 133.559637243,137.130183569 126.358636561,137.130183569 C119.15663588,137.130183569 113.318635327,131.292183017 113.318635327,124.090182335 C113.318635327,116.889181654 119.15663588,111.051181102 126.358636561,111.051181102
C133.559637243,111.051181102 139.397637795,116.889181654 139.397637795,124.090182335"/>
      <path
          style="stroke:none"
          id="9C8616C0"
          d="M99.7125984253,124.090182335 C99.7125984253,131.292183017 93.8745978733,137.130183569 86.6725971913,137.130183569 C79.4715965103,137.130183569 73.6335959573,131.292183017 73.6335959573,124.090182335 C73.6335959573,116.889181654 79.4715965103,111.051181102 86.6725971913,111.051181102
C93.8745978733,111.051181102 99.7125984253,116.889181654 99.7125984253,124.090182335"/>
      <path
          style="stroke:none"
          id="AC8616C0"
          d="M79.8700787393,271.490693342 C79.8700787393,273.995693579 77.8390785463,276.026693772 75.3340783093,276.026693772 C72.8300780723,276.026693772 70.7990778803,273.995693579 70.7990778803,271.490693342 C70.7990778803,268.986693105 72.8300780723,266.956692913 75.3340783093,266.956692913
C77.8390785463,266.956692913 79.8700787393,268.986693105 79.8700787393,271.490693342"/>
      <path
          style="stroke:none"
          id="BC8616C0"
          d="M522.074803149,198.925615246 C522.074803149,205.188615838 516.998802669,210.263616319 510.736802076,210.263616319 C504.473801484,210.263616319 499.397801003,205.188615838 499.397801003,198.925615246 C499.397801003,192.663614653 504.473801484,187.586614173 510.736802076,187.586614173
C516.998802669,187.586614173 522.074803149,192.663614653 522.074803149,198.925615246"/>
      <path
          style="stroke:none"
          id="CC8616C0"
          d="M459.712598424,198.925615246 C459.712598424,205.188615838 454.636597944,210.263616319 448.374597351,210.263616319 C442.111596759,210.263616319 437.035596279,205.188615838 437.035596279,198.925615246 C437.035596279,192.663614653 442.111596759,187.586614173 448.374597351,187.586614173
C454.636597944,187.586614173 459.712598424,192.663614653 459.712598424,198.925615246"/>
      <path
          style="stroke:none"
          id="DC8616C0"
          d="M397.3503937,198.925615246 C397.3503937,205.188615838 392.273393219,210.263616319 386.011392627,210.263616319 C379.749392034,210.263616319 374.673391554,205.188615838 374.673391554,198.925615246 C374.673391554,192.663614653 379.749392034,187.586614173 386.011392627,187.586614173
C392.273393219,187.586614173 397.3503937,192.663614653 397.3503937,198.925615246"/>
      <path
          style="stroke:none"
          id="EC8616C0"
          d="M334.988188976,198.925615246 C334.988188976,205.188615838 329.912188496,210.263616319 323.649187903,210.263616319 C317.387187311,210.263616319 312.31018683,205.188615838 312.31018683,198.925615246 C312.31018683,192.663614653 317.387187311,187.586614173 323.649187903,187.586614173
C329.912188496,187.586614173 334.988188976,192.663614653 334.988188976,198.925615246"/>
      <path
          style="stroke:none"
          id="FC8616C0"
          d="M524.909448818,271.490757139 C524.909448818,278.692757821 519.071448266,284.530758373 511.869447584,284.530758373 C504.668446903,284.530758373 498.83044635,278.692757821 498.83044635,271.490757139 C498.83044635,264.290756458 504.668446903,258.452755906 511.869447584,258.452755906
C519.071448266,258.452755906 524.909448818,264.290756458 524.909448818,271.490757139"/>
      <path
          style="stroke:none"
          id="0D8616C0"
          d="M485.224409448,271.490757139 C485.224409448,278.692757821 479.386408895,284.530758373 472.185408214,284.530758373 C464.983407532,284.530758373 459.14540698,278.692757821 459.14540698,271.490757139 C459.14540698,264.290756458 464.983407532,258.452755906 472.185408214,258.452755906
C479.386408895,258.452755906 485.224409448,264.290756458 485.224409448,271.490757139"/>
      <path
          style="stroke:none"
          id="1D8616C0"
          d="M448.374015747,271.490757139 C448.374015747,278.692757821 442.536015195,284.530758373 435.335014513,284.530758373 C428.133013832,284.530758373 422.29501328,278.692757821 422.29501328,271.490757139 C422.29501328,264.290756458 428.133013832,258.452755906 435.335014513,258.452755906
C442.536015195,258.452755906 448.374015747,264.290756458 448.374015747,271.490757139"/>
      <path
          style="stroke:none"
          id="2D8616C0"
          d="M411.523622047,271.490757139 C411.523622047,278.692757821 405.685621494,284.530758373 398.484620813,284.530758373 C391.282620131,284.530758373 385.444619579,278.692757821 385.444619579,271.490757139 C385.444619579,264.290756458 391.282620131,258.452755906 398.484620813,258.452755906
C405.685621494,258.452755906 411.523622047,264.290756458 411.523622047,271.490757139"/>
      <path
          style="stroke:none"
          id="3D8616C0"
          d="M374.673228346,271.490757139 C374.673228346,278.692757821 368.835227794,284.530758373 361.633227112,284.530758373 C354.432226431,284.530758373 348.594225879,278.692757821 348.594225879,271.490757139 C348.594225879,264.290756458 354.432226431,258.452755906 361.633227112,258.452755906
C368.835227794,258.452755906 374.673228346,264.290756458 374.673228346,271.490757139"/>
      <path
          style="stroke:none"
          id="4D8616C0"
          d="M337.822834645,271.490757139 C337.822834645,278.692757821 331.983834092,284.530758373 324.782833411,284.530758373 C317.58183273,284.530758373 311.743832177,278.692757821 311.743832177,271.490757139 C311.743832177,264.290756458 317.58183273,258.452755906 324.782833411,258.452755906
C331.983834092,258.452755906 337.822834645,264.290756458 337.822834645,271.490757139"/>
      <path
          style="stroke:none"
          id="5D8616C0"
          d="M522.074803149,243.005236636 C522.074803149,245.431236866 520.107802963,247.399237052 517.680802734,247.399237052 C515.254802504,247.399237052 513.286802318,245.431236866 513.286802318,243.005236636 C513.286802318,240.578236407 515.254802504,238.61023622 517.680802734,238.61023622
C520.107802963,238.61023622 522.074803149,240.578236407 522.074803149,243.005236636"/>
      <path
          style="stroke:none"
          id="6D8616C0"
          d="M507.901574802,243.005236636 C507.901574802,245.431236866 505.934574616,247.399237052 503.507574387,247.399237052 C501.081574157,247.399237052 499.113573971,245.431236866 499.113573971,243.005236636 C499.113573971,240.578236407 501.081574157,238.61023622 503.507574387,238.61023622
C505.934574616,238.61023622 507.901574802,240.578236407 507.901574802,243.005236636"/>
      <path
          style="stroke:none"
          id="7D8616C0"
          d="M476.72047244,243.005236636 C476.72047244,245.431236866 474.753472254,247.399237052 472.327472025,247.399237052 C469.900471795,247.399237052 467.933471609,245.431236866 467.933471609,243.005236636 C467.933471609,240.578236407 469.900471795,238.61023622 472.327472025,238.61023622
C474.753472254,238.61023622 476.72047244,240.578236407 476.72047244,243.005236636"/>
      <path
          style="stroke:none"
          id="8D8616C0"
          d="M448.374015747,243.005236636 C448.374015747,245.431236866 446.40701556,247.399237052 443.980015331,247.399237052 C441.554015101,247.399237052 439.586014915,245.431236866 439.586014915,243.005236636 C439.586014915,240.578236407 441.554015101,238.61023622 443.980015331,238.61023622
C446.40701556,238.61023622 448.374015747,240.578236407 448.374015747,243.005236636"/>
      <path
          style="stroke:none"
          id="9D8616C0"
          d="M434.200787401,243.005236636 C434.200787401,245.431236866 432.233787214,247.399237052 429.806786985,247.399237052 C427.380786755,247.399237052 425.412786569,245.431236866 425.412786569,243.005236636 C425.412786569,240.578236407 427.380786755,238.61023622 429.806786985,238.61023622
C432.233787214,238.61023622 434.200787401,240.578236407 434.200787401,243.005236636"/>
      <path
          style="stroke:none"
          id="AD8616C0"
          d="M403.019685039,243.005236636 C403.019685039,245.431236866 401.052684853,247.399237052 398.625684623,247.399237052 C396.199684393,247.399237052 394.232684207,245.431236866 394.232684207,243.005236636 C394.232684207,240.578236407 396.199684393,238.61023622 398.625684623,238.61023622
C401.052684853,238.61023622 403.019685039,240.578236407 403.019685039,243.005236636"/>
      <path
          style="stroke:none"
          id="BD8616C0"
          d="M366.169291338,243.005236636 C366.169291338,245.431236866 364.202291152,247.399237052 361.775290922,247.399237052 C359.349290693,247.399237052 357.382290507,245.431236866 357.382290507,243.005236636 C357.382290507,240.578236407 359.349290693,238.61023622 361.775290922,238.61023622
C364.202291152,238.61023622 366.169291338,240.578236407 366.169291338,243.005236636"/>
      <path
          style="stroke:none"
          id="CD8616C0"
          d="M329.318897637,243.005236636 C329.318897637,245.431236866 327.351897451,247.399237052 324.924897221,247.399237052 C322.498896991,247.399237052 320.530896805,245.431236866 320.530896805,243.005236636 C320.530896805,240.578236407 322.498896991,238.61023622 324.924897221,238.61023622
C327.351897451,238.61023622 329.318897637,240.578236407 329.318897637,243.005236636"/>
      <path
          style="stroke:none"
          id="DD8616C0"
          d="M802.704724409,51.524040443 C802.704724409,57.786041035 797.628723929,62.862041515 791.366723336,62.862041515 C785.103722743,62.862041515 780.027722263,57.786041035 780.027722263,51.524040443 C780.027722263,45.26103985 785.103722743,40.18503937 791.366723336,40.18503937
C797.628723929,40.18503937 802.704724409,45.26103985 802.704724409,51.524040443"/>
      <path
          style="stroke:none"
          id="ED8616C0"
          d="M802.704724409,125.224827845 C802.704724409,131.487828438 797.628723929,136.563828918 791.366723336,136.563828918 C785.103722743,136.563828918 780.027722263,131.487828438 780.027722263,125.224827845 C780.027722263,118.962827253 785.103722743,113.885826772 791.366723336,113.885826772
C797.628723929,113.885826772 802.704724409,118.962827253 802.704724409,125.224827845"/>
      <path
          style="stroke:none"
          id="FD8616C0"
          d="M802.704724409,198.925615246 C802.704724409,205.188615838 797.628723929,210.263616319 791.366723336,210.263616319 C785.103722743,210.263616319 780.027722263,205.188615838 780.027722263,198.925615246 C780.027722263,192.663614653 785.103722743,187.586614173 791.366723336,187.586614173
C797.628723929,187.586614173 802.704724409,192.663614653 802.704724409,198.925615246"/>
      <path
          style="stroke:none"
          id="0E8616C0"
          d="M802.704724409,272.625402647 C802.704724409,278.88840324 797.628723929,283.96440372 791.366723336,283.96440372 C785.103722743,283.96440372 780.027722263,278.88840324 780.027722263,272.625402647 C780.027722263,266.363402055 785.103722743,261.287401575 791.366723336,261.287401575
C797.628723929,261.287401575 802.704724409,266.363402055 802.704724409,272.625402647"/>
      <path
          style="stroke:none"
          id="1E8616C0"
          d="M677.98031496,51.524040443 C677.98031496,57.786041035 672.903314479,62.862041515 666.642313887,62.862041515 C660.379313294,62.862041515 655.303312814,57.786041035 655.303312814,51.524040443 C655.303312814,45.26103985 660.379313294,40.18503937 666.642313887,40.18503937
C672.903314479,40.18503937 677.98031496,45.26103985 677.98031496,51.524040443"/>
      <path
          style="stroke:none"
          id="2E8616C0"
          d="M615.618110235,51.524040443 C615.618110235,57.786041035 610.542109755,62.862041515 604.280109162,62.862041515 C598.01810857,62.862041515 592.942108089,57.786041035 592.942108089,51.524040443 C592.942108089,45.26103985 598.01810857,40.18503937 604.280109162,40.18503937
C610.542109755,40.18503937 615.618110235,45.26103985 615.618110235,51.524040443"/>
      <path
          style="stroke:none"
          id="3E8616C0"
          d="M677.98031496,125.224827845 C677.98031496,131.487828438 672.903314479,136.563828918 666.642313887,136.563828918 C660.379313294,136.563828918 655.303312814,131.487828438 655.303312814,125.224827845 C655.303312814,118.962827253 660.379313294,113.885826772 666.642313887,113.885826772
C672.903314479,113.885826772 677.98031496,118.962827253 677.98031496,125.224827845"/>
      <path
          style="stroke:none"
          id="4E8616C0"
          d="M677.98031496,198.925615246 C677.98031496,205.188615838 672.903314479,210.263616319 666.642313887,210.263616319 C660.379313294,210.263616319 655.303312814,205.188615838 655.303312814,198.925615246 C655.303312814,192.663614653 660.379313294,187.586614173 666.642313887,187.586614173
C672.903314479,187.586614173 677.98031496,192.663614653 677.98031496,198.925615246"/>
      <path
          style="stroke:none"
          id="5E8616C0"
          d="M615.618110235,198.925615246 C615.618110235,205.188615838 610.542109755,210.263616319 604.280109162,210.263616319 C598.01810857,210.263616319 592.942108089,205.188615838 592.942108089,198.925615246 C592.942108089,192.663614653 598.01810857,187.586614173 604.280109162,187.586614173
C610.542109755,187.586614173 615.618110235,192.663614653 615.618110235,198.925615246"/>
      <path
          style="stroke:none"
          id="6E8616C0"
          d="M740.342519684,272.625402647 C740.342519684,278.88840324 735.265519204,283.96440372 729.003518611,283.96440372 C722.741518019,283.96440372 717.665517539,278.88840324 717.665517539,272.625402647 C717.665517539,266.363402055 722.741518019,261.287401575 729.003518611,261.287401575
C735.265519204,261.287401575 740.342519684,266.363402055 740.342519684,272.625402647"/>
      <path
          style="stroke:none"
          id="7E8616C0"
          d="M677.98031496,272.625402647 C677.98031496,278.88840324 672.903314479,283.96440372 666.642313887,283.96440372 C660.379313294,283.96440372 655.303312814,278.88840324 655.303312814,272.625402647 C655.303312814,266.363402055 660.379313294,261.287401575 666.642313887,261.287401575
C672.903314479,261.287401575 677.98031496,266.363402055 677.98031496,272.625402647"/>
      <path
          style="stroke:none"
          id="8E8616C0"
          d="M615.618110235,272.625402647 C615.618110235,278.88840324 610.542109755,283.96440372 604.280109162,283.96440372 C598.01810857,283.96440372 592.942108089,278.88840324 592.942108089,272.625402647 C592.942108089,266.363402055 598.01810857,261.287401575 604.280109162,261.287401575
C610.542109755,261.287401575 615.618110235,266.363402055 615.618110235,272.625402647"/>
      <path
          style="stroke:none"
          id="9E8616C0"
          d="M763.019685039,50.389394935 C763.019685039,57.590395616 757.181684486,63.428396168 749.980683805,63.428396168 C742.778683123,63.428396168 736.940682571,57.590395616 736.940682571,50.389394935 C736.940682571,43.188394253 742.778683123,37.350393701 749.980683805,37.350393701
C757.181684486,37.350393701 763.019685039,43.188394253 763.019685039,50.389394935"/>
      <path
          style="stroke:none"
          id="AE8616C0"
          d="M723.334645669,50.389394935 C723.334645669,57.590395616 717.496645116,63.428396168 710.295644435,63.428396168 C703.093643754,63.428396168 697.255643201,57.590395616 697.255643201,50.389394935 C697.255643201,43.188394253 703.093643754,37.350393701 710.295644435,37.350393701
C717.496645116,37.350393701 723.334645669,43.188394253 723.334645669,50.389394935"/>
      <path
          style="stroke:none"
          id="CE8616C0"
          d="M763.019685039,124.090182335 C763.019685039,131.292183017 757.181684486,137.130183569 749.980683805,137.130183569 C742.778683123,137.130183569 736.940682571,131.292183017 736.940682571,124.090182335 C736.940682571,116.889181654 742.778683123,111.051181102 749.980683805,111.051181102
C757.181684486,111.051181102 763.019685039,116.889181654 763.019685039,124.090182335"/>
      <path
          style="stroke:none"
          id="DE8616C0"
          d="M723.334645669,124.090182335 C723.334645669,131.292183017 717.496645116,137.130183569 710.295644435,137.130183569 C703.093643754,137.130183569 697.255643201,131.292183017 697.255643201,124.090182335 C697.255643201,116.889181654 703.093643754,111.051181102 710.295644435,111.051181102
C717.496645116,111.051181102 723.334645669,116.889181654 723.334645669,124.090182335"/>
      <path
          style="stroke:none"
          id="EE8616C0"
          d="M638.29527559,124.090182335 C638.29527559,131.292183017 632.457275038,137.130183569 625.255274357,137.130183569 C618.054273675,137.130183569 612.216273123,131.292183017 612.216273123,124.090182335 C612.216273123,116.889181654 618.054273675,111.051181102 625.255274357,111.051181102
C632.457275038,111.051181102 638.29527559,116.889181654 638.29527559,124.090182335"/>
      <path
          style="stroke:none"
          id="FE8616C0"
          d="M598.61023622,124.090182335 C598.61023622,131.292183017 592.772235668,137.130183569 585.570234987,137.130183569 C578.369234305,137.130183569 572.531233753,131.292183017 572.531233753,124.090182335 C572.531233753,116.889181654 578.369234305,111.051181102 585.570234987,111.051181102
C592.772235668,111.051181102 598.61023622,116.889181654 598.61023622,124.090182335"/>
      <path
          style="stroke:none"
          id="0F8616C0"
          d="M763.019685039,197.790969738 C763.019685039,204.991970419 757.181684486,210.829970972 749.980683805,210.829970972 C742.778683123,210.829970972 736.940682571,204.991970419 736.940682571,197.790969738 C736.940682571,190.589969057 742.778683123,184.751968504 749.980683805,184.751968504
C757.181684486,184.751968504 763.019685039,190.589969057 763.019685039,197.790969738"/>
      <path
          style="stroke:none"
          id="1F8616C0"
          d="M723.334645669,197.790969738 C723.334645669,204.991970419 717.496645116,210.829970972 710.295644435,210.829970972 C703.093643754,210.829970972 697.255643201,204.991970419 697.255643201,197.790969738 C697.255643201,190.589969057 703.093643754,184.751968504 710.295644435,184.751968504
C717.496645116,184.751968504 723.334645669,190.589969057 723.334645669,197.790969738"/>
      <path
          style="stroke:none"
          id="2F8616C0"
          d="M765.854330708,87.239724838 C765.854330708,89.745725075 763.823330516,91.775725268 761.318330279,91.775725268 C758.813330042,91.775725268 756.78332985,89.745725075 756.78332985,87.239724838 C756.78332985,84.735724601 758.813330042,82.704724409 761.318330279,82.704724409
C763.823330516,82.704724409 765.854330708,84.735724601 765.854330708,87.239724838"/>
      <path
          style="stroke:none"
          id="3F8616C0"
          d="M765.854330708,271.490693342 C765.854330708,273.995693579 763.823330516,276.026693772 761.318330279,276.026693772 C758.813330042,276.026693772 756.78332985,273.995693579 756.78332985,271.490693342 C756.78332985,268.986693105 758.813330042,266.956692913 761.318330279,266.956692913
C763.823330516,266.956692913 765.854330708,268.986693105 765.854330708,271.490693342"/>
      <circle
          style="stroke:none"
          id="5F8616C0"
          cx="43.0196850387"
          cy="125.224409448"
          r="13.0393720404"/>
      <rect
          style="fill:none"
          id="6F8616C0"
          x="0.5"
          y="0.5"
          width="833.385826772"
          height="328.818897638"/>
      <rect
          style="fill:#6C6C6C;stroke:none"
          id="635278C0"
          x="317.98031496"
          y="54.358267717"
          width="198.42519685"
          height="56.6929133858"/>
      <rect
          style="stroke:none"
          id="4F8616C0"
          x="323.649606299"
          y="60.027559055"
          width="187.086614173"
          height="45.3543307087"
          rx="7.086614173228"
          ry="7.086614173228"/>
   </g>
   <g
       id="layer_ornaments"
       style="fill:#000000;fill-opacity:1;stroke:#000000;stroke-opacity:1;fill-rule:nonzero;stroke-linecap:square;stroke-linejoin:miter;stroke-width:1;stroke-miterlimit:10"/>
   <g
       id="layer_original inverse and shapes"
       style="fill:#000000;fill-opacity:1;stroke:#000000;stroke-opacity:1;fill-rule:nonzero;stroke-linecap:square;stroke-linejoin:miter;stroke-width:1;stroke-miterlimit:10"/>
   <g
       id="layer_text as shapes"
       style="fill:#000000;fill-opacity:1;stroke:#000000;stroke-opacity:1;fill-rule:nonzero;stroke-linecap:square;stroke-linejoin:miter;stroke-width:1;stroke-miterlimit:10"/>
</svg>
